<?xml version="1.0" encoding="UTF-8" standalone="no"?>
<svg
   xmlns:dc="http://purl.org/dc/elements/1.1/"
   xmlns:cc="http://creativecommons.org/ns#"
   xmlns:rdf="http://www.w3.org/1999/02/22-rdf-syntax-ns#"
   xmlns:svg="http://www.w3.org/2000/svg"
   xmlns="http://www.w3.org/2000/svg"
   xmlns:sodipodi="http://sodipodi.sourceforge.net/DTD/sodipodi-0.dtd"
   xmlns:inkscape="http://www.inkscape.org/namespaces/inkscape"
   width="64"
   height="64"
   version="1.1"
   id="svg3751"
   sodipodi:docname="icon_unmuted_dark.svg"
   inkscape:version="0.92.3 (2405546, 2018-03-11)">
  <metadata
     id="metadata3757">
    <rdf:RDF>
      <cc:Work
         rdf:about="">
        <dc:format>image/svg+xml</dc:format>
        <dc:type
           rdf:resource="http://purl.org/dc/dcmitype/StillImage" />
        <dc:title></dc:title>
      </cc:Work>
    </rdf:RDF>
  </metadata>
  <defs
     id="defs3755" />
  <sodipodi:namedview
     pagecolor="#ffffff"
     bordercolor="#666666"
     borderopacity="1"
     objecttolerance="10"
     gridtolerance="10"
     guidetolerance="10"
     inkscape:pageopacity="0"
     inkscape:pageshadow="2"
     inkscape:window-width="1920"
     inkscape:window-height="1017"
     id="namedview3753"
     showgrid="false"
     inkscape:zoom="8"
     inkscape:cx="50.422095"
     inkscape:cy="51.374076"
     inkscape:window-x="-8"
     inkscape:window-y="-8"
     inkscape:window-maximized="1"
     inkscape:current-layer="svg3751" />
  <path
     d="M50 4L34 20H12v24h22l16 16z"
     fill="#333"
     id="path3747"
     style="fill:#cccccc" />
  <path
     style="fill:#ffffff;fill-opacity:0;stroke-width:0.125"
     d="M 31.890099,34.043928 5.9833282,8.1369319 8.0781727,6.0448061 10.173017,3.9526804 36.109403,29.888533 62.045789,55.824387 59.985363,57.887655 c -1.133234,1.134798 -2.089242,2.063269 -2.12446,2.063269 -0.03522,0 -11.72208,-11.658149 -25.970804,-25.906996 z"
     id="path3759"
     inkscape:connector-curvature="0" />
  <path
     style="fill:#ffffff;fill-opacity:0;stroke-width:0.125"
     d="M 31.890099,34.043928 5.9833282,8.1369319 8.0781727,6.0448061 10.173017,3.9526804 36.109403,29.888533 62.045789,55.824387 59.985363,57.887655 c -1.133234,1.134798 -2.089242,2.063269 -2.12446,2.063269 -0.03522,0 -11.72208,-11.658149 -25.970804,-25.906996 z"
     id="path3761"
     inkscape:connector-curvature="0" />
  <path
     style="fill:#ffffff;fill-opacity:0;stroke-width:0.125"
     d="M 31.890099,34.043928 5.9833282,8.1369319 8.0781727,6.0448061 10.173017,3.9526804 36.109403,29.888533 62.045789,55.824387 59.985363,57.887655 c -1.133234,1.134798 -2.089242,2.063269 -2.12446,2.063269 -0.03522,0 -11.72208,-11.658149 -25.970804,-25.906996 z"
     id="path3763"
     inkscape:connector-curvature="0" />
  <path
     style="fill:#ffffff;fill-opacity:0;stroke-width:0.125"
     d="M 31.890099,34.043928 5.9833282,8.1369319 8.0781727,6.0448061 10.173017,3.9526804 36.109403,29.888533 62.045789,55.824387 59.985363,57.887655 c -1.133234,1.134798 -2.089242,2.063269 -2.12446,2.063269 -0.03522,0 -11.72208,-11.658149 -25.970804,-25.906996 z"
     id="path3765"
     inkscape:connector-curvature="0" />
</svg>
